<?xml version="1.0" encoding="UTF-8" standalone="no"?>
<!-- Created with Inkscape (http://www.inkscape.org/) -->

<svg
   xmlns:dc="http://purl.org/dc/elements/1.1/"
   xmlns:cc="http://creativecommons.org/ns#"
   xmlns:rdf="http://www.w3.org/1999/02/22-rdf-syntax-ns#"
   xmlns:svg="http://www.w3.org/2000/svg"
   xmlns="http://www.w3.org/2000/svg"
   xmlns:sodipodi="http://sodipodi.sourceforge.net/DTD/sodipodi-0.dtd"
   xmlns:inkscape="http://www.inkscape.org/namespaces/inkscape"
   width="300mm"
   height="300mm"
   viewBox="0 0 300 300"
   version="1.1"
   id="svg821"
   inkscape:version="0.92.4 (5da689c313, 2019-01-14)"
   sodipodi:docname="razor.svg">
  <defs
     id="defs815" />
  <sodipodi:namedview
     id="base"
     pagecolor="#ffffff"
     bordercolor="#666666"
     borderopacity="1.0"
     inkscape:pageopacity="0.0"
     inkscape:pageshadow="2"
     inkscape:zoom="0.7"
     inkscape:cx="776.40815"
     inkscape:cy="545.76021"
     inkscape:document-units="mm"
     inkscape:current-layer="layer1"
     showgrid="false"
     inkscape:window-width="1920"
     inkscape:window-height="1017"
     inkscape:window-x="1912"
     inkscape:window-y="-8"
     inkscape:window-maximized="1" />
  <metadata
     id="metadata818">
    <rdf:RDF>
      <cc:Work
         rdf:about="">
        <dc:format>image/svg+xml</dc:format>
        <dc:type
           rdf:resource="http://purl.org/dc/dcmitype/StillImage" />
        <dc:title></dc:title>
      </cc:Work>
    </rdf:RDF>
  </metadata>
  <g
     inkscape:groupmode="layer"
     id="layer3"
     inkscape:label="shadow">
    <path
       style="fill:#1b1b1b;stroke:none;stroke-width:0.26458332px;stroke-linecap:butt;stroke-linejoin:miter;stroke-opacity:1;fill-opacity:0.1356784"
       d="m 26.326048,278.55161 0.167043,2.20498 37.006908,11.63664 187.854161,-150.57627 9.56753,5.59878 -0.4961,-12.59134 9.09505,-7.70126 -24.87555,0.0945 L 33.828868,31.731399 36.148203,58.154487 205.59708,139.97237 227.58,128.07888 l 9.2208,5.67947 z"
       id="path5097"
       inkscape:connector-curvature="0" />
  </g>
  <g
     inkscape:groupmode="layer"
     id="layer2"
     inkscape:label="blade">
    <path
       style="fill:#757575;stroke:none;stroke-width:0.26458332px;stroke-linecap:butt;stroke-linejoin:miter;stroke-opacity:1;fill-opacity:1"
       d="M 30.468726,27.919624 234.66264,121.06305 v 0 l 25.45594,13.06657 0.27547,12.06545 -32.27951,-20.18753 -22.82142,11.92035 L 34.2105,55.181116 Z"
       id="path5074"
       inkscape:connector-curvature="0"
       sodipodi:nodetypes="ccccccccc" />
    <path
       style="fill:#a4a4a4;stroke:none;stroke-width:0.26458332px;stroke-linecap:butt;stroke-linejoin:miter;stroke-opacity:1;fill-opacity:1"
       d="M 34.2105,55.181116 31.230281,33.715774 228.11454,126.00754 205.29312,137.92789 Z"
       id="path5076"
       inkscape:connector-curvature="0" />
    <path
       style="fill:#7f0000;stroke:none;stroke-width:0.26458332px;stroke-linecap:butt;stroke-linejoin:miter;stroke-opacity:1;fill-opacity:1"
       d="m 34.2105,55.181116 -0.233862,-1.870888 1.469982,1.202712 5.545844,1.804069 3.641548,2.973374 4.476763,1.703843 3.942225,2.806329 4.276313,2.138156 3.274052,0.467723 1.670433,1.603618 5.479026,3.006781 1.870888,-0.133633 0.734991,1.00226 2.338607,1.469982 4.744035,0.801807 5.078121,3.808592 3.80859,1.870888 2.53906,0.200451 v 0.868627 l 1.336347,0.46772 2.204974,1.336349 4.877671,2.672694 2.739512,0.668173 8.0849,4.409948 9.35443,3.80859 3.54133,2.472243 1.26953,-0.06682 0.86862,1.135896 3.60814,-0.133636 0.86863,1.804069 5.74629,2.873157 6.21402,2.07133 0.13363,1.1359 5.61266,2.67269 4.6104,1.40317 3.20724,2.47224 4.81085,2.07134 4.27631,2.47224 10.42351,3.54133 1.87089,2.60587 -0.0752,0.19628 z"
       id="path5094"
       inkscape:connector-curvature="0" />
    <path
       style="fill:#f5f5f5;fill-opacity:1;stroke:none;stroke-width:0.26458332px;stroke-linecap:butt;stroke-linejoin:miter;stroke-opacity:1"
       d="m 42.36222,47.964838 14.169218,11.128044 9.350499,3.57178 -6.414468,-7.216277 z"
       id="path5099"
       inkscape:connector-curvature="0"
       sodipodi:nodetypes="ccccc" />
    <path
       style="fill:#f5f5f5;fill-opacity:1;stroke:none;stroke-width:0.26458332px;stroke-linecap:butt;stroke-linejoin:miter;stroke-opacity:1"
       d="m 42.43887,52.340969 4.012402,0.850734 1.075098,2.105034 -2.815707,0.08442 z"
       id="path5103"
       inkscape:connector-curvature="0"
       sodipodi:nodetypes="ccccc" />
    <path
       style="fill:#f5f5f5;fill-opacity:1;stroke:none;stroke-width:0.26458332px;stroke-linecap:butt;stroke-linejoin:miter;stroke-opacity:1"
       d="m 40.05702,47.497115 3.674957,4.07586 -5.445618,-2.605877 -2.372017,-3.875408 z"
       id="path5105"
       inkscape:connector-curvature="0"
       sodipodi:nodetypes="ccccc" />
    <path
       style="fill:#f5f5f5;fill-opacity:1;stroke:none;stroke-width:0.26458332px;stroke-linecap:butt;stroke-linejoin:miter;stroke-opacity:1"
       d="m 187.65611,122.26787 13.36602,10.41933 6.84641,1.63466 -3.10718,-4.57045 z"
       id="path5099-5"
       inkscape:connector-curvature="0"
       sodipodi:nodetypes="ccccc" />
  </g>
  <g
     inkscape:label="handle"
     inkscape:groupmode="layer"
     id="layer1"
     transform="translate(0,3)">
    <path
       style="fill:#7f0000;stroke:none;stroke-width:0.26458332px;stroke-linecap:butt;stroke-linejoin:miter;stroke-opacity:1;fill-opacity:1"
       d="M 24.588796,275.61845 62.541068,287.37829 271.0113,122.20573 244.55161,122.473 Z"
       id="path5069"
       inkscape:connector-curvature="0"
       sodipodi:nodetypes="ccccc" />
    <path
       style="fill:#c62828;stroke:none;stroke-width:0.26458332px;stroke-linecap:butt;stroke-linejoin:miter;stroke-opacity:1;fill-opacity:1"
       d="M 24.588796,275.61844 62.541067,287.37827 92.074351,264.25948 59.734738,251.02964 Z"
       id="path5078"
       inkscape:connector-curvature="0" />
    <path
       style="fill:#c62828;stroke:none;stroke-width:0.26458332px;stroke-linecap:butt;stroke-linejoin:miter;stroke-opacity:1;fill-opacity:1"
       d="m 271.0113,122.20573 -26.45969,0.26727 -16.97161,11.75986 16.06958,9.6217 z"
       id="path5080"
       inkscape:connector-curvature="0" />
    <path
       style="fill:#7f0000;stroke:none;stroke-width:0.265;stroke-linecap:butt;stroke-linejoin:miter;stroke-opacity:1;stroke-miterlimit:4;stroke-dasharray:none;fill-opacity:1"
       d="m 59.909225,264.11608 -7.559524,4.91368 9.827382,4.34674 8.504464,-5.85865 z"
       id="path5082"
       inkscape:connector-curvature="0" />
    <path
       style="fill:#7f0000;stroke:none;stroke-width:0.26458332px;stroke-linecap:butt;stroke-linejoin:miter;stroke-opacity:1;fill-opacity:1"
       d="m 248.70833,128.04464 -4.34673,1.7009 5.48066,2.83482 2.83482,-2.83482 z"
       id="path5084"
       inkscape:connector-curvature="0" />
  </g>
</svg>
